<?xml version="1.0" encoding="UTF-8" standalone="no"?>
<svg width="40px" height="35px" viewBox="0 0 40 35" version="1.1" xmlns="http://www.w3.org/2000/svg" xmlns:xlink="http://www.w3.org/1999/xlink" xmlns:sketch="http://www.bohemiancoding.com/sketch/ns">
    <!-- Generator: Sketch 3.3.3 (12081) - http://www.bohemiancoding.com/sketch -->
    <title>add</title>
    <desc>Created with Sketch.</desc>
    <defs></defs>
    <g id="Welcome" stroke="none" stroke-width="1" fill="none" fill-rule="evenodd" sketch:type="MSPage">
        <g id="Serve-WPB-Home" sketch:type="MSArtboardGroup" transform="translate(-173.000000, -5531.000000)" fill="#FFFFFF">
            <path d="M208.446429,5554.57143 L208.446429,5550.01786 L213,5550.01786 L213,5546.26786 L208.446429,5546.26786 L208.446429,5541.71429 L204.696429,5541.71429 L204.696429,5546.26786 L200.142857,5546.26786 L200.142857,5550.01786 L204.696429,5550.01786 L204.696429,5554.57143 L208.446429,5554.57143 Z M207.285714,5565.28571 C207.285714,5565.28571 207.285714,5562.92857 207.089286,5561.69643 C206.928571,5560.72321 205.580357,5559.4375 199.848214,5557.33036 C194.205357,5555.25893 194.553571,5556.26786 194.553571,5552.45536 C194.553571,5549.98214 195.8125,5551.41964 196.616071,5546.72321 C196.928571,5544.875 197.178571,5546.10714 197.857143,5543.14286 C198.214286,5541.58929 197.616071,5541.47321 197.6875,5540.73214 C197.758929,5539.99107 197.830357,5539.33036 197.964286,5537.8125 C198.125,5535.9375 196.383929,5531 190.142857,5531 C183.901786,5531 182.160714,5535.9375 182.330357,5537.82143 C182.464286,5539.33036 182.535714,5540 182.607143,5540.74107 C182.678571,5541.48214 182.080357,5541.59821 182.4375,5543.15179 C183.116071,5546.10714 183.366071,5544.875 183.678571,5546.73214 C184.482143,5551.42857 185.741071,5549.99107 185.741071,5552.46429 C185.741071,5556.28571 186.089286,5555.27679 180.446429,5557.33929 C174.714286,5559.4375 173.357143,5560.73214 173.205357,5561.70536 C173,5562.92857 173,5565.28571 173,5565.28571 L190.142857,5565.28571 L207.285714,5565.28571 Z" id="add" sketch:type="MSShapeGroup"></path>
        </g>
    </g>
</svg>