<?xml version="1.0" encoding="UTF-8" standalone="no"?>
<svg width="31px" height="31px" viewBox="0 0 31 31" version="1.1" xmlns="http://www.w3.org/2000/svg" xmlns:xlink="http://www.w3.org/1999/xlink" xmlns:sketch="http://www.bohemiancoding.com/sketch/ns">
    <!-- Generator: Sketch 3.3.3 (12081) - http://www.bohemiancoding.com/sketch -->
    <title>facebook</title>
    <desc>Created with Sketch.</desc>
    <defs></defs>
    <g id="Welcome" stroke="none" stroke-width="1" fill="none" fill-rule="evenodd" sketch:type="MSPage">
        <g id="Serve-WPB-Home" sketch:type="MSArtboardGroup" transform="translate(-954.000000, -5615.000000)" fill="#008290">
            <path d="M956.405832,5615.49985 C955.491084,5615.49985 954.75,5616.24093 954.75,5617.15557 L954.75,5643.84424 C954.75,5644.75865 955.491084,5645.49996 956.405832,5645.49996 L970.77395,5645.49996 L970.77395,5633.88238 L966.864405,5633.88238 L966.864405,5629.35473 L970.77395,5629.35473 L970.77395,5626.01575 C970.77395,5622.14082 973.140516,5620.03088 976.597295,5620.03088 C978.253014,5620.03088 979.676057,5620.15419 980.090942,5620.20926 L980.090942,5624.25875 L977.693352,5624.25988 C975.813497,5624.25988 975.449531,5625.15316 975.449531,5626.46402 L975.449531,5629.35473 L979.932901,5629.35473 L979.349072,5633.88238 L975.449531,5633.88238 L975.449531,5645.49996 L983.09428,5645.49996 C984.008692,5645.49996 984.75,5644.75865 984.75,5643.84424 L984.75,5617.15557 C984.75,5616.24093 984.008692,5615.49985 983.09428,5615.49985 L956.405832,5615.49985 Z" id="facebook" sketch:type="MSShapeGroup"></path>
        </g>
    </g>
</svg>