<?xml version="1.0" encoding="UTF-8" standalone="no"?>
<svg width="20px" height="20px" viewBox="0 0 20 20" version="1.1" xmlns="http://www.w3.org/2000/svg" xmlns:xlink="http://www.w3.org/1999/xlink" xmlns:sketch="http://www.bohemiancoding.com/sketch/ns">
    <!-- Generator: Sketch 3.3.3 (12081) - http://www.bohemiancoding.com/sketch -->
    <title>Fill 95</title>
    <desc>Created with Sketch.</desc>
    <defs></defs>
    <g id="Welcome" stroke="none" stroke-width="1" fill="none" fill-rule="evenodd" sketch:type="MSPage">
        <g id="Serve-WPB-Home" sketch:type="MSArtboardGroup" transform="translate(-161.000000, -1258.000000)" fill="#95E38D">
            <path d="M168.316667,1276.09167 C168.829167,1275.82292 168.88125,1275.47292 169.345833,1275.45417 C169.877083,1275.42917 170.310417,1275.24583 170.908333,1275.11458 C171.439583,1274.99792 172.391667,1274.46042 173.229167,1274.38958 C173.933333,1274.33333 175.327083,1274.42708 175.702083,1275.10833 C174.352083,1276.00417 172.735417,1276.52708 171,1276.52708 C170.0625,1276.52708 169.1625,1276.37292 168.316667,1276.09167 L168.316667,1276.09167 Z M169.827083,1259.55417 C169.622917,1259.95208 169.085417,1260.11458 168.758333,1260.4125 C168.045833,1261.05625 167.739583,1260.96875 167.35625,1261.58542 C166.970833,1262.20417 165.725,1263.09583 165.725,1263.54375 C165.725,1263.99167 166.354167,1264.51875 166.66875,1264.41667 C166.983333,1264.3125 167.8125,1264.31875 168.3,1264.48958 C168.7875,1264.6625 172.377083,1264.83542 171.233333,1267.86875 C170.870833,1268.83333 169.283333,1268.67083 168.860417,1270.26875 C168.797917,1270.50208 168.577083,1271.50417 168.5625,1271.83125 C168.5375,1272.3375 168.920833,1274.24583 168.433333,1274.24583 C167.941667,1274.24583 166.622917,1272.53958 166.622917,1272.22917 C166.622917,1271.92083 166.279167,1270.83542 166.279167,1269.90625 C166.279167,1268.97708 164.7,1268.99375 164.7,1267.75833 C164.7,1266.64375 165.55625,1266.08958 165.364583,1265.55625 C165.175,1265.025 163.66875,1265.00625 163.041667,1264.94167 C164.1375,1262.09792 166.71875,1259.98542 169.827083,1259.55417 L169.827083,1259.55417 Z M179.529167,1268 C179.529167,1269.95 178.866667,1271.75 177.7625,1273.1875 C177.45,1272.94167 177.116667,1272.28333 177.429167,1271.6 C177.74375,1270.9125 177.827083,1269.32083 177.75625,1268.70208 C177.685417,1268.08333 177.364583,1266.59167 176.489583,1266.57708 C175.61875,1266.56458 175.01875,1266.275 174.5,1265.24167 C173.422917,1263.0875 176.520833,1262.67292 175.44375,1261.47917 C175.141667,1261.14583 173.5875,1262.85833 173.358333,1260.575 C173.34375,1260.4125 173.5,1260.16875 173.708333,1259.91458 C177.0875,1261.05 179.529167,1264.24375 179.529167,1268 L179.529167,1268 Z M171,1258 C165.485417,1258 161,1262.48542 161,1268 C161,1273.51458 165.485417,1278 171,1278 C176.514583,1278 181,1273.51458 181,1268 C181,1262.48542 176.514583,1258 171,1258 L171,1258 Z" id="Fill-95" sketch:type="MSShapeGroup"></path>
        </g>
    </g>
</svg>