<?xml version="1.0" encoding="UTF-8" standalone="no"?>
<svg width="31px" height="31px" viewBox="0 0 31 31" version="1.1" xmlns="http://www.w3.org/2000/svg" xmlns:xlink="http://www.w3.org/1999/xlink" xmlns:sketch="http://www.bohemiancoding.com/sketch/ns">
    <!-- Generator: Sketch 3.3.3 (12081) - http://www.bohemiancoding.com/sketch -->
    <title>linkedin</title>
    <desc>Created with Sketch.</desc>
    <defs></defs>
    <g id="Welcome" stroke="none" stroke-width="1" fill="none" fill-rule="evenodd" sketch:type="MSPage">
        <g id="Serve-WPB-Home" sketch:type="MSArtboardGroup" transform="translate(-1038.000000, -5615.000000)" fill="#008290">
            <path d="M1066.27792,5615.49985 L1040.71444,5615.49985 C1039.49236,5615.49985 1038.5,5616.46888 1038.5,5617.66138 L1038.5,5643.33513 C1038.5,5644.52985 1039.49236,5645.49985 1040.71444,5645.49985 L1066.27792,5645.49985 C1067.50139,5645.49985 1068.5,5644.52985 1068.5,5643.33513 L1068.5,5617.66138 C1068.5,5616.46888 1067.50139,5615.49985 1066.27792,5615.49985 Z M1050.18806,5626.74763 L1054.45681,5626.74763 L1054.45681,5628.70304 L1054.5175,5628.70304 C1055.11167,5627.57776 1056.56347,5626.39068 1058.72819,5626.39068 C1063.23069,5626.39068 1064.06236,5629.35513 1064.06236,5633.21138 L1064.06236,5641.06415 L1059.61792,5641.06415 L1059.61792,5634.10235 C1059.61792,5632.4411 1059.58528,5630.30568 1057.305,5630.30568 C1054.98958,5630.30568 1054.63639,5632.11443 1054.63639,5633.98179 L1054.63639,5641.06415 L1050.18806,5641.06415 L1050.18806,5626.74763 Z M1045.59288,5619.63013 C1047.24762,5619.63013 1048.59264,5620.97457 1048.59264,5622.62924 C1048.59264,5624.28569 1047.24762,5625.63013 1045.59288,5625.63013 C1043.93378,5625.63013 1042.59264,5624.28569 1042.59264,5622.62924 C1042.59264,5620.97457 1043.93378,5619.63013 1045.59288,5619.63013 Z M1043.0035,5626.74763 L1049.0035,5626.74763 L1049.0035,5641.06415 L1043.0035,5641.06415 L1043.0035,5626.74763 Z" id="linkedin" sketch:type="MSShapeGroup"></path>
        </g>
    </g>
</svg>