<?xml version="1.0" encoding="UTF-8" standalone="no"?>
<svg width="13px" height="20px" viewBox="0 0 13 20" version="1.1" xmlns="http://www.w3.org/2000/svg" xmlns:xlink="http://www.w3.org/1999/xlink" xmlns:sketch="http://www.bohemiancoding.com/sketch/ns">
    <!-- Generator: Sketch 3.3.3 (12081) - http://www.bohemiancoding.com/sketch -->
    <title>Fill 9</title>
    <desc>Created with Sketch.</desc>
    <defs></defs>
    <g id="Welcome" stroke="none" stroke-width="1" fill="none" fill-rule="evenodd" sketch:type="MSPage">
        <g id="Serve-WPB-Home" sketch:type="MSArtboardGroup" transform="translate(-166.000000, -1143.000000)" fill="#95E38D">
            <path d="M172.25,1152.7 C170.38575,1152.7 168.875,1151.189 168.875,1149.325 C168.875,1147.46125 170.38575,1145.95 172.25,1145.95 C174.11375,1145.95 175.625,1147.46125 175.625,1149.325 C175.625,1151.189 174.11375,1152.7 172.25,1152.7 L172.25,1152.7 Z M172.25,1143 C168.79775,1143 166,1145.7985 166,1149.25 C166,1155.21725 172.25,1163 172.25,1163 C172.25,1163 178.5,1155.21725 178.5,1149.25 C178.5,1145.7985 175.70175,1143 172.25,1143 L172.25,1143 Z" id="Fill-9" sketch:type="MSShapeGroup"></path>
        </g>
    </g>
</svg>