<?xml version="1.0" encoding="UTF-8" standalone="no"?>
<svg width="37px" height="30px" viewBox="0 0 37 30" version="1.1" xmlns="http://www.w3.org/2000/svg" xmlns:xlink="http://www.w3.org/1999/xlink" xmlns:sketch="http://www.bohemiancoding.com/sketch/ns">
    <!-- Generator: Sketch 3.3.3 (12081) - http://www.bohemiancoding.com/sketch -->
    <title>twitter</title>
    <desc>Created with Sketch.</desc>
    <defs></defs>
    <g id="Welcome" stroke="none" stroke-width="1" fill="none" fill-rule="evenodd" sketch:type="MSPage">
        <g id="Serve-WPB-Home" sketch:type="MSArtboardGroup" transform="translate(-994.000000, -5616.000000)" fill="#008290">
            <path d="M1030.95745,5619.55121 C1029.59935,5620.15366 1028.13955,5620.56084 1026.60777,5620.74375 C1028.17111,5619.80648 1029.37214,5618.32232 1029.93768,5616.55372 C1028.47418,5617.42178 1026.85344,5618.05191 1025.12822,5618.39153 C1023.74686,5616.91955 1021.77856,5616 1019.60021,5616 C1015.41775,5616 1012.02657,5619.39082 1012.02657,5623.57328 C1012.02657,5624.16687 1012.09357,5624.74495 1012.22277,5625.29923 C1005.92841,5624.98343 1000.3478,5621.96822 996.612566,5617.38615 C995.960649,5618.50468 995.58707,5619.80574 995.58707,5621.19374 C995.58707,5623.82134 996.924128,5626.13942 998.956293,5627.49751 C997.714845,5627.4582 996.547042,5627.11748 995.525976,5626.55028 C995.525237,5626.58184 995.525237,5626.6134 995.525237,5626.64552 C995.525237,5630.31486 998.135859,5633.37584 1001.60051,5634.07169 C1000.96502,5634.24482 1000.29593,5634.33748 999.605257,5634.33748 C999.117242,5634.33748 998.642701,5634.28986 998.180342,5634.20144 C999.144005,5637.21019 1001.94086,5639.39999 1005.25508,5639.46089 C1002.6631,5641.49232 999.39761,5642.70313 995.849166,5642.70313 C995.237855,5642.70313 994.635035,5642.66714 994.042551,5642.59718 C997.394239,5644.746 1001.37514,5646 1005.6521,5646 C1019.58249,5646 1027.20044,5634.45966 1027.20044,5624.45148 C1027.20044,5624.12312 1027.19287,5623.79661 1027.17829,5623.47176 C1028.6582,5622.40381 1029.94211,5621.07008 1030.95745,5619.55121" id="twitter" sketch:type="MSShapeGroup"></path>
        </g>
    </g>
</svg>